<?xml version="1.0" encoding="utf-8" ?><svg xmlns="http://www.w3.org/2000/svg" xmlns:xlink="http://www.w3.org/1999/xlink" width="5976" height="4212" viewBox="0 0 5976 4212"><path fill="white" transform="scale(4 4)" d="M0 0L1494 0L1494 1053L0 1053L0 0Z"/><path fill="#620984" transform="scale(4 4)" d="M1132.92 64.6367C1152.7 57.9191 1264.86 25.9815 1277.74 31.8431C1280.35 33.0316 1282.29 35.0195 1283.26 37.7355C1284.5 41.1924 1283.61 44.8753 1281.98 48.0382C1280 51.8837 1268.41 60.6108 1268.39 61.6314C1269.81 63.9297 1270.27 64.3977 1270.21 67.0941C1267.42 73.3631 1252.97 86.5626 1247.63 91.2658C1256.7 89.3207 1265.8 87.2266 1274.96 85.7327C1277.92 85.2488 1279.17 86.4436 1281.39 88.2444C1289.72 86.9789 1302.87 83.7681 1310.18 89.1803C1316.32 94.242 1316.44 104.474 1311.34 110.262C1309.96 111.82 1303.77 115.891 1303.88 116.696C1304.49 120.812 1306.05 120.06 1303.45 125.135C1298.23 135.297 1289.04 142.327 1282.26 151.161C1289.89 151.104 1317.31 148.761 1322.14 154.926C1332.96 168.753 1309.94 173.863 1301.75 177.233C1306.43 176.615 1315.74 174.88 1319.08 178.526C1325.99 186.067 1311.12 195.784 1306.61 198.684C1316.06 196.636 1343.33 188.724 1351.66 194.772C1362.97 202.974 1352.67 219.121 1344.41 225.456C1344.41 225.454 1343.91 233.795 1342.45 234.37C1335.62 242.731 1326.53 249.078 1318.46 256.194C1354.19 253.684 1333.85 280.686 1316.45 289.358C1313.47 290.846 1310.19 292.117 1307.03 293.247C1312.75 293.029 1322.86 290.048 1328.77 288.55L1375.74 276.443C1383.53 274.434 1408.39 267.36 1415.05 268.919C1439.79 274.709 1409.68 302.858 1402.61 311.089C1402.33 311.418 1405.1 315.287 1405.44 315.606C1404.06 326.746 1387.82 340.293 1380.09 346.549C1381.15 355.78 1375.1 359.709 1368.33 365.508C1376.47 364.134 1395.98 359.241 1402.4 360.424C1406.62 363.767 1405.51 363.301 1411.04 363.158C1418.65 362.96 1425.68 368.813 1425.27 376.714C1424.72 387.223 1417.26 392.739 1416.11 403.085C1415.86 405.868 1405.64 413.252 1403.45 416.845C1404.82 419.472 1406 420.635 1404.97 423.625C1401.03 435.081 1387.7 438.973 1382.03 444.906C1384.82 446.056 1384.89 445.564 1386.37 447.621C1386.33 452.146 1373.9 465.622 1370.34 469.138C1376.72 468.406 1386.23 466.443 1391.53 469.47C1395.33 474.568 1391.75 479.502 1388.54 484.145C1398.06 482.338 1415.91 477.081 1424.77 482.037C1427.24 483.418 1428.82 486.398 1429.11 489.333C1430.08 499.158 1420.65 506.355 1415.96 513.995C1415.96 513.993 1416.45 518.939 1416.19 519.419C1415.65 522.816 1407.15 528.009 1404.16 530.164L1404.88 530.668C1407.11 532.246 1407.83 532.535 1408.87 535.056C1410.02 546.706 1393.7 551.729 1388.91 557.282C1391.7 557.49 1392.81 555.199 1395.89 555.979C1398.2 563.218 1381.42 573.448 1380.99 575.413L1384.42 575.315C1385.89 576.889 1385.41 575.93 1385.43 578.481C1383.3 583.15 1378.49 586.955 1374.64 590.325C1386.02 587.799 1414.43 578.9 1418.21 595.93C1420.9 608.018 1404.69 620.934 1399.85 629.648C1404.26 636.983 1402.86 639.652 1396.69 645.001C1385.08 655.058 1371.56 662.633 1359.31 671.743C1367.47 670.338 1380.54 667.887 1382.83 679.848C1383.58 683.78 1379.91 689.139 1377.3 691.938C1369.63 699.073 1363.11 706.622 1354.18 712.04C1360.8 709.45 1374.46 702.842 1378.86 713.715C1381.02 719.025 1374.57 728.145 1370.75 731.879C1363.27 739.196 1356.43 748.462 1348.82 755.686C1353.43 756.147 1358.89 756.626 1362.02 760.628C1369.85 770.621 1363.23 780.763 1353.95 786.571C1330.66 801.154 1303.79 809.102 1278.56 819.53C1272.65 821.972 1270.76 828.391 1266.83 832.685C1266.26 833.3 1260.58 836.144 1259.38 836.737C1267.01 837.22 1288.11 836.946 1289.52 846.488C1288.4 850.436 1284.95 852.946 1281.53 854.875C1261.63 866.11 1104.23 917.871 1086.83 912.439C1085.34 911.975 1084.93 911.369 1084.31 910.024C1087.78 905.438 1103.57 895.713 1109.11 891.205C1083.13 899.258 1054.8 904.035 1028.69 912.418C1024.96 913.617 1015.2 915.459 1011.04 916.356C992.36 920.384 933.035 945.246 917.523 940.048L916.828 939.216C919.308 935.627 927.948 926.999 931.454 923.576C906.381 929.779 882.157 937.34 857.481 944.944C841.778 949.783 825.796 954.961 809.552 957.521C805.659 958.102 802.383 957.968 800.068 954.432C800.19 949.411 811.608 941.07 815.386 936.779C773.17 945.083 731.431 961.346 689.203 969.931C685.342 970.716 681.09 970.793 677.429 969.194L676.377 967.867C677.056 963.496 681.518 960.427 685.042 957.848C689.317 954.759 693.611 951.695 697.924 948.659C672.121 953.446 648.188 961.586 622.602 966.706C620.619 967.103 619.478 966.809 617.852 965.801C618.099 964.858 618.317 963.946 618.4 962.973C613.657 963.375 604.487 966.074 600.846 966.123C585.317 966.333 523.386 989.886 513.195 983.982C509.951 979.38 522.201 971.531 525.566 969.051C503.887 968.611 408.6 997.007 396.921 993.779L396.024 992.65C398.97 987.509 428.057 970.67 434.875 965.926C431.725 965.949 427.644 966.417 425.218 964.834C424.246 962.557 424.645 962.954 425.126 960.041C417.777 961.948 385.596 970.697 380.185 971.166C373.339 972.99 366.523 974.535 359.598 976.027C343.664 979.461 327.44 985.509 311.471 988.402C307.189 990.224 286.052 995.116 280.199 996.605C262.779 1001.04 244.858 1005.63 227.319 1009.66C221.298 1010.34 209.739 1014.42 204.058 1013.93C189.801 1012.68 192.203 1003.19 198.219 994.935C202.802 988.645 200.9 988.403 207.158 983.761L207.161 982.801C201.798 980.322 124.167 1009.33 111.729 999.476C100.266 990.399 107.646 984.053 112.23 976.351C111.533 966.908 117.412 964.504 123.868 958.374C122.815 957.194 121.37 956.942 119.815 956.43C113.425 949.084 124.499 938.11 129.316 932.991C99.5287 943.051 69.248 951.794 94.3461 906.686C102.44 892.14 106.894 886.094 119.112 874.656C108.981 877.928 97.3169 882.012 86.8939 883.442C57.3366 871.516 79.7452 836.638 96.3625 823.63C80.9209 814.986 100.457 797.218 107.986 790.142C100.373 791.946 85.4987 796.458 78.1141 793.392C76.8185 792.854 75.9356 790.535 75.3716 789.223L75.0323 788.424C71.5556 787.954 66.381 789.25 62.7944 789.53C55.5601 790.096 47.1664 780.726 48.514 773.789C53.5278 747.983 93.9532 726.399 111.164 710.263L111.827 709.634C106.746 712.519 95.8909 720.05 90.8756 715.102C89.8741 709.341 97.0866 702.113 101.382 698.945C104.736 694.914 108.931 691.184 112.773 687.574C85.253 686.966 104.659 661.362 113.714 651.088C29.7026 666.353 111.689 584.307 132.909 566.024C121.315 558.818 126.668 556.606 121.496 550.917C116.275 545.174 113.182 550.626 111.334 535.194C106.403 535.944 98.4972 537.689 94.6895 534.081C85.4027 525.281 101.298 505.808 106.763 499.062C103.495 496.686 102.629 496.025 99.9527 493.034L96.4825 485.33C96.3709 482.871 96.662 481.53 96.382 478.699C91.3587 473.775 89.2584 457.568 90.1059 450.616C91.455 439.549 103.57 431.339 111.845 425.143C88.9196 435.579 97.5714 413.151 98.6247 401.746C95.3183 400.948 89.6975 403.532 86.6585 399.608C80.075 391.108 90.3571 375.729 93.9547 367.234C94.3811 366.227 98.1492 362.852 99.0522 362.054L99.0097 361.689C100.926 352.495 102.487 348.876 108.548 341.727C106.647 314.768 106.616 290.669 106.62 263.534C106.63 190.901 158.364 151.477 227.424 152.79C250.91 153.237 268.929 161.291 285.003 179.104C288.844 172.889 291.513 168.657 296.5 163.334C315.779 139.989 354.33 132.204 383.324 132.967C387.62 132.724 399.742 134.06 404.171 134.938C429.939 140.051 443.358 149.9 457.824 170.838C461.916 164.581 465.598 157.496 470.068 151.615C504.212 106.701 589.006 99.5256 635.047 126.13C659.128 118.68 682.623 109.014 706.542 101.027C709.769 99.9492 712.426 99.0708 715.767 98.3823L716.96 98.0085C725.08 94.9157 780.022 75.3259 782.865 85.1309C781.374 89.6679 777.837 91.5485 773.971 94.2644C776.574 94.6535 781.124 95.4883 783.587 95.6881C805.064 87.8684 913.739 53.2837 929.911 53.5271C931.603 53.5526 933.165 53.9619 934.313 55.2662C935.438 56.5453 935.295 56.8882 935.242 58.5009C931.643 63.5818 910.094 73.3396 902.737 78.022C906.312 78.1177 908.792 77.9404 912.361 77.6558C949.45 65.8186 989.777 56.3152 1027.64 46.6623C1047.15 42.2781 1066.81 36.5375 1086.74 34.465C1091.69 33.9496 1096.25 35.4769 1096.13 41.1307C1093.16 50.058 1068.88 57.6825 1060.22 62.3913L1059.34 62.8761C1063.64 61.7939 1070.69 59.3447 1074.45 61.0625C1074.18 63.4147 1073.42 63.4483 1071.41 65.4426C1092.59 62.1089 1111.57 59.8419 1132.92 64.6367Z"/><path fill="#FE5401" transform="scale(4 4)" d="M1307.03 293.247C1312.75 293.029 1322.86 290.048 1328.77 288.55L1375.74 276.443C1383.53 274.434 1408.39 267.36 1415.05 268.919C1439.79 274.709 1409.68 302.858 1402.61 311.089C1402.33 311.418 1405.1 315.287 1405.44 315.606C1404.06 326.746 1387.82 340.293 1380.09 346.549C1381.15 355.78 1375.1 359.709 1368.33 365.508C1376.47 364.134 1395.98 359.241 1402.4 360.424C1406.62 363.767 1405.51 363.301 1411.04 363.158C1418.65 362.96 1425.68 368.813 1425.27 376.714C1424.72 387.223 1417.26 392.739 1416.11 403.085C1415.86 405.868 1405.64 413.252 1403.45 416.845C1404.82 419.472 1406 420.635 1404.97 423.625C1401.03 435.081 1387.7 438.973 1382.03 444.906C1384.82 446.056 1384.89 445.564 1386.37 447.621C1386.33 452.146 1373.9 465.622 1370.34 469.138C1376.72 468.406 1386.23 466.443 1391.53 469.47C1395.33 474.568 1391.75 479.502 1388.54 484.145C1398.06 482.338 1415.91 477.081 1424.77 482.037C1427.24 483.418 1428.82 486.398 1429.11 489.333C1430.08 499.158 1420.65 506.355 1415.96 513.995C1415.96 513.993 1416.45 518.939 1416.19 519.419C1415.65 522.816 1407.15 528.009 1404.16 530.164L1404.88 530.668C1407.11 532.246 1407.83 532.535 1408.87 535.056C1410.02 546.706 1393.7 551.729 1388.91 557.282C1391.7 557.49 1392.81 555.199 1395.89 555.979C1398.2 563.218 1381.42 573.448 1380.99 575.413L1384.42 575.315C1385.89 576.889 1385.41 575.93 1385.43 578.481C1383.3 583.15 1378.49 586.955 1374.64 590.325C1386.02 587.799 1414.43 578.9 1418.21 595.93C1420.9 608.018 1404.69 620.934 1399.85 629.648C1404.26 636.983 1402.86 639.652 1396.69 645.001C1385.08 655.058 1371.56 662.633 1359.31 671.743C1367.47 670.338 1380.54 667.887 1382.83 679.848C1383.58 683.78 1379.91 689.139 1377.3 691.938C1369.63 699.073 1363.11 706.622 1354.18 712.04C1360.8 709.45 1374.46 702.842 1378.86 713.715C1381.02 719.025 1374.57 728.145 1370.75 731.879C1363.27 739.196 1356.43 748.462 1348.82 755.686C1353.43 756.147 1358.89 756.626 1362.02 760.628C1369.85 770.621 1363.23 780.763 1353.95 786.571C1330.66 801.154 1303.79 809.102 1278.56 819.53C1272.65 821.972 1270.76 828.391 1266.83 832.685C1266.26 833.3 1260.58 836.144 1259.38 836.737C1267.01 837.22 1288.11 836.946 1289.52 846.488C1288.4 850.436 1284.95 852.946 1281.53 854.875C1261.63 866.11 1104.23 917.871 1086.83 912.439C1085.34 911.975 1084.93 911.369 1084.31 910.024C1087.78 905.438 1103.57 895.713 1109.11 891.205C1083.13 899.258 1054.8 904.035 1028.69 912.418C1024.96 913.617 1015.2 915.459 1011.04 916.356C992.36 920.384 933.035 945.246 917.523 940.048L916.828 939.216C919.308 935.627 927.948 926.999 931.454 923.576C906.381 929.779 882.157 937.34 857.481 944.944C841.778 949.783 825.796 954.961 809.552 957.521C805.659 958.102 802.383 957.968 800.068 954.432C800.19 949.411 811.608 941.07 815.386 936.779C773.17 945.083 731.431 961.346 689.203 969.931C685.342 970.716 681.09 970.793 677.429 969.194L676.377 967.867C677.056 963.496 681.518 960.427 685.042 957.848C689.317 954.759 693.611 951.695 697.924 948.659C672.121 953.446 648.188 961.586 622.602 966.706C620.619 967.103 619.478 966.809 617.852 965.801C618.099 964.858 618.317 963.946 618.4 962.973C613.657 963.375 604.487 966.074 600.846 966.123C585.317 966.333 523.386 989.886 513.195 983.982C509.951 979.38 522.201 971.531 525.566 969.051C503.887 968.611 408.6 997.007 396.921 993.779L396.024 992.65C398.97 987.509 428.057 970.67 434.875 965.926C431.725 965.949 427.644 966.417 425.218 964.834C424.246 962.557 424.645 962.954 425.126 960.041C445.409 953.964 464.213 948.001 480.805 934.409C490.755 926.258 500.794 916.233 512.404 910.689C518.825 907.622 522.434 905.439 527.732 900.669C578.451 918.41 633.734 911.053 681.498 887.831C690.601 883.406 698.361 875.743 706.713 870.892L707.601 870.386C710.642 867.348 717.78 859.101 721.205 858.361L723.071 860.365C732.322 868.13 743.06 875.215 754.953 878.09C790.327 886.641 829.352 880.006 864.556 873.612C901.672 866.872 942.816 852.076 970.772 825.82C999.811 854.216 1051.58 853.463 1088.23 841.834C1101.58 837.596 1111.79 830.521 1121.9 821.065C1134.43 828.687 1147.28 832.972 1161.9 834.297C1193.34 837.145 1233.78 829.945 1258.32 809.13C1278.03 792.412 1286.38 767.65 1288.31 742.579C1292.57 687.054 1257.09 548.41 1233.86 495.525C1226.74 479.342 1217.87 463.955 1206.36 450.507C1225.76 445.854 1244.02 435.773 1255.25 418.822C1276.88 386.154 1266.8 343.002 1259.33 307.177L1307.03 293.247Z"/><defs><linearGradient id="gradient_0" gradientUnits="userSpaceOnUse" x1="42.145187" y1="778.89362" x2="356.16568" y2="992.16559"><stop offset="0" stop-color="#F10346"/><stop offset="1" stop-color="#C0027B"/></linearGradient></defs><path fill="url(#gradient_0)" transform="scale(4 4)" d="M148.449 675.199C152.945 701.264 160.246 723.442 178.212 743.771C138.802 790.527 155.622 862.11 199.986 899.108C237.603 930.479 283.986 938.931 331.483 939.247C336.918 940.576 344.098 941.286 349.731 941.774C348.429 943.96 348.532 942.887 348.943 945.023C352.517 946.303 350.53 943.049 353.691 945.569L354.317 948.19C357.897 949.225 357.612 946.993 361.459 950.452C366.237 954.748 366.133 958.846 367.82 964.456C368.801 964.714 369.658 964.987 370.524 965.52C368.023 967.987 367.904 967.265 367.836 969.826C371.546 973.784 374.836 970.38 380.185 971.166C373.339 972.99 366.523 974.535 359.598 976.027C343.664 979.461 327.44 985.509 311.471 988.402C307.189 990.224 286.052 995.116 280.199 996.605C262.779 1001.04 244.858 1005.63 227.319 1009.66C221.298 1010.34 209.739 1014.42 204.058 1013.93C189.801 1012.68 192.203 1003.19 198.219 994.935C202.802 988.645 200.9 988.403 207.158 983.761L207.161 982.801C201.798 980.322 124.167 1009.33 111.729 999.476C100.266 990.399 107.646 984.053 112.23 976.351C111.533 966.908 117.412 964.504 123.868 958.374C122.815 957.194 121.37 956.942 119.815 956.43C113.425 949.084 124.499 938.11 129.316 932.991C99.5287 943.051 69.248 951.794 94.3461 906.686C102.44 892.14 106.894 886.094 119.112 874.656C108.981 877.928 97.3169 882.012 86.8939 883.442C57.3366 871.516 79.7452 836.638 96.3625 823.63C80.9209 814.986 100.457 797.218 107.986 790.142C100.373 791.946 85.4987 796.458 78.1141 793.392C76.8185 792.854 75.9356 790.535 75.3716 789.223L75.0323 788.424C71.5556 787.954 66.381 789.25 62.7944 789.53C55.5601 790.096 47.1664 780.726 48.514 773.789C53.5278 747.983 93.9532 726.399 111.164 710.263L111.827 709.634C106.746 712.519 95.8909 720.05 90.8756 715.102C89.8741 709.341 97.0866 702.113 101.382 698.945C104.481 697.641 107.948 694.349 110.632 692.071C110.641 693.847 110.489 694.041 111.419 695.581L113.475 696.078C116.984 691.767 121.954 689.084 126.841 686.639C133.683 683.216 140.446 679.61 147.567 676.79C147.861 676.26 148.155 675.729 148.449 675.199Z"/><path fill="#C40278" transform="scale(4 4)" d="M207.158 983.761C205.233 986.935 204.106 987.552 204.64 990.618C206.137 991.67 214.125 991.96 216.067 991.977C218.918 992.002 225.296 986.012 227.388 985.218C236.952 981.587 249.564 978.247 258.879 974.166C268.164 970.099 271.11 964.189 283.111 962.956C294.229 961.814 297.653 968.193 306.013 968.018C310.474 972.112 310.908 973.381 312.474 979.322L312.682 977.723C314.789 985.36 310.756 985.208 311.471 988.402C307.189 990.224 286.052 995.116 280.199 996.605C262.779 1001.04 244.858 1005.63 227.319 1009.66C221.298 1010.34 209.739 1014.42 204.058 1013.93C189.801 1012.68 192.203 1003.19 198.219 994.935C202.802 988.645 200.9 988.403 207.158 983.761Z"/><path fill="#C40278" transform="scale(4 4)" d="M1132.92 64.6367C1152.7 57.9191 1264.86 25.9815 1277.74 31.8431C1280.35 33.0316 1282.29 35.0195 1283.26 37.7355C1284.5 41.1924 1283.61 44.8753 1281.98 48.0382C1280 51.8837 1268.41 60.6108 1268.39 61.6314C1269.81 63.9297 1270.27 64.3977 1270.21 67.0941C1267.42 73.3631 1252.97 86.5626 1247.63 91.2658C1256.7 89.3207 1265.8 87.2266 1274.96 85.7327C1277.92 85.2488 1279.17 86.4436 1281.39 88.2444C1289.72 86.9789 1302.87 83.7681 1310.18 89.1803C1316.32 94.242 1316.44 104.474 1311.34 110.262C1309.96 111.82 1303.77 115.891 1303.88 116.696C1304.49 120.812 1306.05 120.06 1303.45 125.135C1298.23 135.297 1289.04 142.327 1282.26 151.161C1289.89 151.104 1317.31 148.761 1322.14 154.926C1332.96 168.753 1309.94 173.863 1301.75 177.233C1306.43 176.615 1315.74 174.88 1319.08 178.526C1325.99 186.067 1311.12 195.784 1306.61 198.684C1316.06 196.636 1343.33 188.724 1351.66 194.772C1362.97 202.974 1352.67 219.121 1344.41 225.456C1344.41 225.454 1343.91 233.795 1342.45 234.37C1335.62 242.731 1326.53 249.078 1318.46 256.194C1354.19 253.684 1333.85 280.686 1316.45 289.358C1313.47 290.846 1310.19 292.117 1307.03 293.247L1259.33 307.177C1256.08 286.587 1247.94 254.684 1242.29 234.252C1231.61 195.63 1219.49 147.817 1199.61 113.174C1184.36 86.5984 1162.11 71.9111 1132.92 64.6367Z"/><path fill="#FE5401" transform="scale(4 4)" d="M99.0097 361.689C100.926 352.495 102.487 348.876 108.548 341.727C110.092 369.347 112.415 398.112 115.523 425.639C121.688 480.248 118.738 537.132 180.29 559.424C155.384 588.233 144.909 630.623 147.7 668.158C147.883 670.512 148.132 672.859 148.449 675.199C148.155 675.729 147.861 676.26 147.567 676.79C140.446 679.61 133.683 683.216 126.841 686.639C121.954 689.084 116.984 691.767 113.475 696.078L111.419 695.581C110.489 694.041 110.641 693.847 110.632 692.071C107.948 694.349 104.481 697.641 101.382 698.945C104.736 694.914 108.931 691.184 112.773 687.574C85.253 686.966 104.659 661.362 113.714 651.088C29.7026 666.353 111.689 584.307 132.909 566.024C121.315 558.818 126.668 556.606 121.496 550.917C116.275 545.174 113.182 550.626 111.334 535.194C106.403 535.944 98.4972 537.689 94.6895 534.081C85.4027 525.281 101.298 505.808 106.763 499.062C103.495 496.686 102.629 496.025 99.9527 493.034L96.4825 485.33C96.3709 482.871 96.662 481.53 96.382 478.699C91.3587 473.775 89.2584 457.568 90.1059 450.616C91.455 439.549 103.57 431.339 111.845 425.143C88.9196 435.579 97.5714 413.151 98.6247 401.746C95.3183 400.948 89.6975 403.532 86.6585 399.608C80.075 391.108 90.3571 375.729 93.9547 367.234C94.3811 366.227 98.1492 362.852 99.0522 362.054L99.0097 361.689Z"/><path fill="#FF6D1C" transform="scale(4 4)" d="M96.4825 485.33C99.2689 484.216 99.6071 483.527 102.162 484.113C103.587 487.232 101.799 490.298 99.9527 493.034L96.4825 485.33Z"/><path fill="#C40278" transform="scale(4 4)" d="M331.483 939.247C389.461 934.784 444.471 920.947 481.213 872.395C493.557 884.858 511.176 895.053 527.732 900.669C522.434 905.439 518.825 907.622 512.404 910.689C500.794 916.233 490.755 926.258 480.805 934.409C464.213 948.001 445.409 953.964 425.126 960.041C417.777 961.948 385.596 970.697 380.185 971.166C374.836 970.38 371.546 973.784 367.836 969.826C367.904 967.265 368.023 967.987 370.524 965.52C369.658 964.987 368.801 964.714 367.82 964.456C366.133 958.846 366.237 954.748 361.459 950.452C357.612 946.993 357.897 949.225 354.317 948.19L353.691 945.569C350.53 943.049 352.517 946.303 348.943 945.023C348.532 942.887 348.429 943.96 349.731 941.774C344.098 941.286 336.918 940.576 331.483 939.247Z"/><path fill="#FE5401" transform="scale(4 4)" d="M912.361 77.6558C949.45 65.8186 989.777 56.3152 1027.64 46.6623C1047.15 42.2781 1066.81 36.5375 1086.74 34.465C1091.69 33.9496 1096.25 35.4769 1096.13 41.1307C1093.16 50.058 1068.88 57.6825 1060.22 62.3913L1059.34 62.8761C1063.64 61.7939 1070.69 59.3447 1074.45 61.0625C1074.18 63.4147 1073.42 63.4483 1071.41 65.4426C1033.83 75.7864 1014.58 84.9602 993.332 119.726C980.395 98.305 966.254 88.0194 941.841 81.3296C930.288 78.1639 922.473 79.248 912.361 77.6558Z"/><path fill="#FE5401" transform="scale(4 4)" d="M783.587 95.6881C805.064 87.8684 913.739 53.2837 929.911 53.5271C931.603 53.5526 933.165 53.9619 934.313 55.2662C935.438 56.5453 935.295 56.8882 935.242 58.5009C931.643 63.5818 910.094 73.3396 902.737 78.022L899.606 78.4876C881.129 79.3781 854.973 86.5783 840.413 98.188C833.897 101.909 826.137 111.688 821.724 117.762C810.253 105.345 799.193 100.292 783.587 95.6881Z"/><path fill="#FE5401" transform="scale(4 4)" d="M635.047 126.13C659.128 118.68 682.623 109.014 706.542 101.027C709.769 99.9492 712.426 99.0708 715.767 98.3823C711.023 100.983 704.844 102.316 699.743 104.582C679.684 113.496 666.625 126.455 657.272 146.333C649.187 137.14 645.201 133.138 635.047 126.13Z"/><defs><linearGradient id="gradient_1" gradientUnits="userSpaceOnUse" x1="331.27374" y1="147.7813" x2="329.08777" y2="142.39883"><stop offset="0" stop-color="#8A10A9"/><stop offset="1" stop-color="#B725D7"/></linearGradient></defs><path fill="url(#gradient_1)" transform="scale(4 4)" d="M296.5 163.334C315.779 139.989 354.33 132.204 383.324 132.967C378.413 136.921 363.042 132.72 360.049 135.946L360.449 136.722C363.245 136.912 366.045 137.038 368.847 137.102L369.31 137.711C364.439 140.385 352.151 139.975 346.739 141.547C336.717 144.457 326.964 148.496 317.517 152.849C310.924 155.887 305.359 164.092 300.668 164.09L300.072 161.904C298.808 162.416 298.605 162.41 297.562 163.262L296.5 163.334Z"/><path fill="#FE5401" transform="scale(4 4)" d="M716.96 98.0085C725.08 94.9157 780.022 75.3259 782.865 85.1309C781.374 89.6679 777.837 91.5485 773.971 94.2644C759.543 93.4189 749.879 93.3138 735.388 95.018C730.153 95.6337 721.172 97.685 716.96 98.0085Z"/><path fill="#9C13BD" transform="scale(4 4)" d="M840.413 98.188C854.973 86.5783 881.129 79.3781 899.606 78.4876L900.33 79.3158L897.524 79.7767L896.836 81.0223C898.01 82.1627 897.316 81.718 899.18 81.96C894.29 84.3355 881.586 86.2295 875.497 87.2251C866.697 88.6643 846.648 100.467 840.413 98.188Z"/><path fill="white" transform="scale(4 4)" d="M1094.26 441.057C1111.77 439.879 1129.87 440.576 1146.56 446.531C1170.36 455.021 1183.33 473.353 1193.78 495.148C1215.56 540.614 1247.95 671.001 1248.05 722.15C1248.07 731.302 1246.75 740.513 1243.65 749.148C1237.92 765.153 1227.86 776.58 1212.36 783.699C1191.74 793.16 1156.74 797.396 1135.43 789.429C1120.85 783.976 1112.83 773.332 1106.5 759.681C1101.63 783.964 1083.51 799.673 1059.48 804.278C1036.14 808.75 1006.38 811.305 985.369 798.055C971.74 789.459 967.3 776.412 964.164 761.522C963.692 762.24 963.208 762.951 962.714 763.655C930.795 809.008 889.464 825.38 836.322 834.092C809.008 838.57 761.968 846.411 738.261 829.091C721.753 817.031 719.668 798.428 716.74 780.089C688.24 847.285 612.22 879.44 542.297 864.525C505.284 856.63 482.165 835.542 462.536 804.108C456.066 822.468 449.157 837.568 435.272 851.61C392.432 894.934 325.147 905.173 268.075 892.112C241.899 886.803 212.142 868.98 200.08 844.956C180.705 806.365 186.037 765.342 225.768 743.843C204.884 729.067 190.304 706.99 184.91 681.978C177.544 647.992 183.864 612.471 202.501 583.114C243.881 518.278 345.594 502.512 409.991 540.569C415.302 543.708 420.142 548.202 424.538 552.492C438.392 566.015 442.929 581.938 446.757 600.131C469.056 527.114 536.531 485.53 613.1 497.976C650.803 504.105 680.003 528.188 701.212 559.383C700.801 544.685 699.31 528.013 705.231 514.313C718.117 484.873 752.234 481.114 779.266 476.068C844.724 463.85 916.008 468.895 957.486 527.813C967.828 542.503 972.45 552.822 979.238 569.737C979.569 566.286 980.092 562.857 980.621 559.443C992.604 482.067 1012.77 449.02 1094.26 441.057Z"/><path fill="#620984" transform="scale(4 4)" d="M575.357 514.021C602.557 510.165 636.183 518.852 658.159 535.683C691.612 561.246 706.823 601.877 712.225 642.593C725.281 740.99 701.52 832.57 591.572 847.725C503.472 857.041 460.025 792.214 451.319 712.229C441.469 621.733 472.48 524.749 575.357 514.021Z"/><path fill="white" transform="scale(4 4)" d="M578.138 618.709C582.725 619.215 585.731 621.593 588.224 625.3C601.061 644.388 610.75 719.04 588.376 731.597C582.09 731.996 577.438 728.228 575.075 722.456C564.048 695.518 561.57 660.564 567.864 632.178C569.3 625.7 572.526 621.732 578.138 618.709Z"/><path fill="#620984" transform="scale(4 4)" d="M580.254 643.872C580.745 644.07 581.709 644.76 582.199 645.082C588.209 657.225 590.678 698.32 586.224 711.72C578.249 706.093 576.446 654.628 580.254 643.872Z"/><path fill="#620984" transform="scale(4 4)" d="M818.874 489.224C846.059 485.768 882.948 491.498 907.889 504.892C984.038 545.788 988.266 673.687 953.593 742.363C935.229 778.736 901.745 797.273 863.394 808.524C843.288 813.647 822.819 817.217 802.167 819.205C755.835 823.685 737.259 820.503 733.782 769.804C730.947 728.465 729.003 686.421 725.657 645.15L720.13 579.639C718.641 561.606 713.503 526.994 725.625 513.55C742.616 494.705 795.716 490.795 818.874 489.224Z"/><path fill="white" transform="scale(4 4)" d="M832.078 593.285C852.202 592.79 859.631 616.181 862.423 632.387C865.727 651.562 864.569 673.997 853.039 690.316C850.126 693.975 844.772 699.916 839.766 698.691C838.335 695.784 837.915 691.164 837.562 687.895C835.243 666.183 833.3 644.433 831.733 622.654C831.186 615.841 827.92 598.444 832.078 593.285Z"/><path fill="#620984" transform="scale(4 4)" d="M843.82 617.021C854.234 627.482 852.981 653.339 849.28 666.715L848.453 667.917L847.787 667.451C845.582 658.103 843.815 626.636 843.82 617.021Z"/><path fill="#620984" transform="scale(4 4)" d="M317.103 538.84C325.255 537.495 337.477 538.252 345.942 538.838C389.184 541.832 434.63 565.244 430.705 615.598C427.521 656.453 378.189 668.407 347.376 648.613C341.201 644.646 335.339 635.639 327.883 635.135C324.742 634.951 321.666 636.076 319.384 638.242C317.043 640.409 315.762 643.487 315.873 646.674C316.633 663.592 348.598 665.13 360.907 667.058C367.856 668.119 374.728 669.636 381.478 671.601C425.213 684.329 447.445 713.094 449.92 758.661C454.179 837.071 389.545 876.109 318.094 878.571C314.534 878.645 310.973 878.636 307.414 878.546C279.407 877.833 243.675 869.114 223.951 848.08C211.907 835.007 205.556 817.679 206.298 799.916C207.881 758.086 251.903 743.454 286.764 757.525C294.71 760.73 300.995 766.933 306.256 773.553C311.671 780.368 322.768 784.501 329.413 776.95C337.444 767.826 326.537 757.633 318.184 754.345C288.068 742.488 252.789 745.329 226.901 723.241C210.104 709.241 201.393 687.209 199.655 665.646C193.731 592.15 247.483 544.63 317.103 538.84Z"/><path fill="#620984" transform="scale(4 4)" d="M1094.79 727.184C1088.84 729.172 1104.64 784.719 1043.72 788.502C981.401 792.372 978.436 774.599 980.712 714.732C982.323 672.342 987.576 632.261 993.67 590.541C999.021 558.213 1004.05 517.763 1021.86 489.267C1044.84 457.134 1124.43 448.978 1154.55 471.227C1179.5 489.662 1194.86 549.014 1202.69 578.897C1213.65 621.884 1223.5 665.263 1228.8 709.3C1233.1 746.117 1219.13 768.584 1181.45 773.279C1135.92 778.953 1120.92 770.187 1114.56 723.903C1108.16 726.375 1101.72 727.945 1094.79 727.184Z"/><path fill="#620984" transform="scale(4 4)" d="M1094.79 727.184C1092.83 725.907 1080.94 725.937 1078.32 722.533C1076.82 720.581 1074.87 718.144 1076.8 715.871C1084.31 715.328 1096.18 719.716 1106.23 717.502C1112.3 716.162 1119.39 711.035 1123.85 711.92C1127.02 718.697 1119.13 721.912 1114.56 723.903C1108.16 726.375 1101.72 727.945 1094.79 727.184Z"/><path fill="white" transform="scale(4 4)" d="M1094.28 573.925C1101.9 581.011 1111.75 626.043 1109.38 637.879C1108.91 640.275 1104.61 642.065 1102.55 642.906C1094.67 644.254 1088.02 644.52 1086.77 634.474C1084.92 619.606 1086.01 586.358 1094.28 573.925Z"/><path fill="#620984" transform="scale(4 4)" d="M434.436 648.543C435.527 654.137 433.423 676.096 433.783 684.337C429.538 680.359 427.164 678.152 422.307 674.756C418.541 672.227 414.42 670.091 410.428 667.918C421.021 663.296 427.32 657.216 434.436 648.543Z"/><path fill="white" transform="scale(4 4)" d="M377.588 168.874C403.146 167.424 425.055 176.341 431.612 202.527C436.456 221.877 437.811 240.119 439.812 259.88C443.11 293.919 446.108 327.985 448.805 362.076C451.165 390.713 460.28 455.514 441.112 477.687C430.923 489.472 413.974 493.299 399.061 494.434C387.467 495.316 374.01 494.258 364.836 486.275C359.626 481.742 356.347 475.198 354.283 468.707C347.867 448.535 346.429 405.989 344.713 383.217C336.481 403.288 329.004 446.031 311.527 455.629C305.901 458.657 299.295 459.297 293.193 457.404C275.447 451.894 262.693 413.579 253.576 395.974C255.184 419.603 258.495 443.825 260.306 467.718C260.945 512.533 229.613 524.342 187.836 519.596C170.546 517.632 160.521 497.331 158.017 481.126C150.462 428.952 145.375 373.982 143.585 321.408C143.041 264.858 129.981 205.062 202.5 191.422C268.457 179.015 265.723 226.504 290.634 272.34C296.209 251.645 301.023 231.221 308.584 211.093C320.953 178.166 345.06 170.934 377.588 168.874Z"/><path fill="white" transform="scale(4 4)" d="M903.617 114.872L904.63 114.811C939.761 112.819 962.601 123.706 967.536 160.686C971.142 189.167 973.399 217.746 975.037 246.491C977.713 293.457 985.328 342.005 983.276 388.942C981.227 421.423 955.348 433.558 926.064 434.795C905.472 435.664 887.299 427.673 882.846 405.888C876.946 377.026 875.966 344.519 875.223 314.965C867.864 330.97 861.269 364.112 846.658 372.057C841.848 374.615 836.209 375.12 831.021 373.457C816.674 368.861 804.563 340.139 797.162 326.161C798.737 347.462 801.252 368.853 803.048 390.226C804.579 410.459 803.756 432.989 783.61 443.949C769.208 451.784 746.76 454.585 730.653 450.448C723.983 448.86 714.099 441.774 711.537 435.074C704.529 416.746 703.403 390.631 701.513 371.558C698.897 345.464 696.437 319.355 694.132 293.232L688.488 230.23C685.726 198.514 676.069 154.574 711.6 139.329C730.698 131.135 758.795 126 778.727 132.954C802.913 141.393 816.25 180.73 826.267 202.581C830.568 183.128 839.334 150.764 852.282 135.349C865.334 119.809 884.592 116.436 903.617 114.872Z"/><path fill="white" transform="scale(4 4)" d="M565.147 147.718C567.954 147.465 570.75 147.433 573.566 147.473C591.993 147.731 611.485 151.33 624.741 165.216C635.27 176.245 641.743 191.89 647.081 205.966C659.275 238.125 666.809 272.962 674.527 306.432C682.127 339.386 693.013 380.012 692.38 413.506C692.119 427.352 689.339 440.982 678.919 450.864C666.812 462.347 647.892 465.614 631.731 465.15C584.358 463.791 596.195 414.923 586.669 405.974C584.742 404.164 582.314 404.245 579.857 404.467C579.616 404.489 579.377 404.516 579.137 404.541C574.363 405.14 567.149 405.281 563.563 408.758C559.194 412.997 564.268 445.792 550.701 462.532C542.004 473.262 527.923 478.255 514.542 479.547C502.93 480.668 489.009 480.541 479.631 472.593C468.048 462.777 466.901 445.424 465.687 431.334C461.412 381.703 467.242 210.345 498.047 174.327C514.746 154.802 540.801 149.624 565.147 147.718Z"/><path fill="#620984" transform="scale(4 4)" d="M563.981 260.119C566.94 261.921 568.654 263.464 570.057 267.018C575.146 279.913 582.413 304.53 577.799 317.975C576.527 321.679 573.556 323.163 570.471 324.549C562.633 324.947 556.41 323.802 555.553 314.227C554.358 300.872 553.575 269.184 563.981 260.119Z"/><path fill="white" transform="scale(4 4)" d="M1090.96 99.5001C1108.74 96.7644 1133.99 100.242 1148.84 109.998C1163.94 119.919 1173.27 138.009 1179.42 154.595C1187.42 176.179 1193.91 198.686 1199.75 220.92C1207.74 250.652 1214.76 280.634 1220.81 310.819C1228.98 351.822 1239.66 398.847 1183.52 408.613C1131.51 417.659 1127.49 390.511 1120.73 348.636C1116.11 346.488 1106.19 349.203 1101.11 350.164C1099.54 350.46 1095.34 351.174 1094.29 352.441C1089.97 357.633 1096.81 388.462 1085.47 404.639C1078.57 414.488 1066.44 419.385 1054.95 421.301C1041.31 423.575 1023.98 424.567 1012.34 415.939C1002.47 408.629 999.683 396.859 998.123 385.367C991.504 336.62 1003.1 206.007 1016.84 157.892C1019.77 147.625 1023.69 137.153 1030.29 128.647C1044.97 109.72 1068.14 102.412 1090.96 99.5001Z"/><path fill="#620984" transform="scale(4 4)" d="M1096.14 211.987C1097.39 212.082 1097.98 212.319 1099.17 212.65C1102.34 215.318 1105.21 221.062 1106.05 225.028C1108.86 238.303 1119.76 265.816 1104.25 273.9C1083.66 277.254 1087.64 258.802 1088.03 244.16C1088.29 234.449 1090.28 219.694 1096.14 211.987Z"/></svg>
